<svg width="83" height="105" viewBox="0 0 83 105" fill="none" xmlns="http://www.w3.org/2000/svg">
<path d="M26.9996 89.4337C22.2668 85.0972 20.8853 75.9885 22.8551 69.384C26.2694 73.5472 31.0075 74.865 35.9136 75.6105C43.4777 76.755 50.9157 76.3298 57.9492 72.8595C58.7529 72.4605 59.4988 71.9303 60.3761 71.4C61.0379 73.3163 61.2113 75.2535 60.9801 77.2275C60.4181 82.0312 58.0385 85.743 54.2407 88.557C52.7227 89.6858 51.1206 90.6885 49.5552 91.749C44.7436 95.0145 43.4409 98.8365 45.2479 104.401L45.4265 105C43.1125 103.992 41.1545 102.313 39.806 100.181C38.3963 97.9857 37.6453 95.4333 37.6418 92.8252C37.626 91.5232 37.626 90.216 37.4527 88.9402C37.0272 85.8165 35.5617 84.4253 32.8144 84.3413C31.4957 84.2666 30.195 84.6747 29.1556 85.4894C28.1163 86.304 27.4095 87.4692 27.1677 88.767C27.1221 88.97 27.0643 89.1905 26.9943 89.4285M0 68.2867C0 68.2867 14.004 61.446 28.0501 61.446L38.6398 28.581C39.0338 26.985 40.1947 25.9035 41.4974 25.9035C42.8106 25.9035 43.9662 26.985 44.3602 28.581L54.9499 61.446C71.5856 61.446 83 68.2867 83 68.2867L59.1627 3.1605C58.4798 1.239 57.3242 0 55.7746 0H27.2254C25.6706 0 24.5675 1.239 23.8374 3.1605C23.7848 3.2865 0 68.2867 0 68.2867Z" fill="white" fill-opacity="0.5"/>
</svg>
