<svg width="100" height="99" viewBox="0 0 100 99" fill="none" xmlns="http://www.w3.org/2000/svg">
<path d="M100 100H0V0H100V100ZM33.8889 79.0667L26.2889 83.7556C27.4722 86.3556 29.3944 88.55 31.8111 90.0722C34.4389 91.5778 37.4222 92.35 40.45 92.2944C42.0389 92.2833 43.6167 92.1 45.1667 91.7389C46.767 91.3452 48.2662 90.6181 49.5662 89.6052C50.8663 88.5924 51.9379 87.3165 52.7111 85.8611C54.2667 82.1944 54.8444 78.1833 54.3778 74.2278V71.9222C54.4056 66.2167 54.3778 60.4111 54.3778 54.7889V45.9389H45V73.1444C45.2778 75.9222 45.0778 78.7167 44.4056 81.4222C44.0108 82.1841 43.4003 82.8127 42.6504 83.2297C41.9005 83.6466 41.0443 83.8334 40.1889 83.7667C39.4055 83.7646 38.6267 83.6466 37.8778 83.4167C36.3732 82.63 35.1602 81.3819 34.4167 79.8556L34.2333 79.5444C34.0611 79.25 33.9444 79.0444 33.8889 79.0444V79.0667ZM66.9389 77.9556L59.3111 82.3278C59.9333 83.6944 60.8 84.9389 61.8556 86.0056C62.1167 86.2944 62.4111 86.6055 62.6833 86.95C66.4111 90.2833 71.2889 92.05 76.2889 91.8778C79.4393 92.1882 82.6053 91.4671 85.3105 89.823C88.0157 88.1788 90.1137 85.7005 91.2889 82.7611V82.7167C91.9222 80.4944 92.0222 78.1611 91.5833 75.8944L91.7722 76.1667C90.95 71.0055 87.2111 67.4222 79.2611 64.1944C78.6444 63.9056 78.0056 63.6389 77.3833 63.3611C74.9111 62.2944 72.5778 61.2944 71.7667 59.4722C71.4053 58.5348 71.3393 57.5093 71.5778 56.5333C71.8566 55.5858 72.4579 54.7656 73.2777 54.2147C74.0974 53.6638 75.084 53.4169 76.0667 53.5167C76.6833 53.5167 77.3 53.6056 77.8944 53.7833C79.7278 54.3944 81.2 55.7667 81.9611 57.5389C86.2667 54.7222 86.2667 54.7222 89.2722 52.85C88.5846 51.6763 87.7664 50.5842 86.8333 49.5944C85.4256 48.0854 83.6951 46.9139 81.7711 46.1673C79.8472 45.4208 77.7794 45.1186 75.7222 45.2833H75.0556L72.1222 45.6556C69.3674 46.2738 66.875 47.7385 64.9944 49.8444C63.9002 51.2128 63.0922 52.7871 62.6182 54.4738C62.1442 56.1606 62.014 57.9254 62.2352 59.6634C62.4565 61.4014 63.0248 63.0773 63.9062 64.5914C64.7877 66.1056 65.9645 67.4272 67.3667 68.4778C69.8 70.1444 72.4222 71.5111 75.1833 72.55C78.7444 74.05 81.8167 75.3278 82.4389 77.6667C82.6246 78.3349 82.6536 79.037 82.5235 79.7183C82.3934 80.3996 82.1078 81.0416 81.6889 81.5944C80.9438 82.3302 80.0475 82.8952 79.0623 83.2501C78.0771 83.605 77.0265 83.7415 75.9833 83.65C75.402 83.6483 74.8213 83.6112 74.2444 83.5389C72.6921 83.191 71.2338 82.5101 69.9705 81.5432C68.7072 80.5763 67.669 79.3465 66.9278 77.9389L66.9389 77.9556Z" fill="white" fill-opacity="0.5"/>
</svg>
