<svg width="123" height="54" viewBox="0 0 123 54" fill="none" xmlns="http://www.w3.org/2000/svg">
<path d="M29.3157 36.0653L29.2406 36.0528C29.1772 36.0528 29.1139 36.0444 29.049 36.0444C28.15 36.0523 27.2616 36.2293 26.4359 36.5653C25.6102 36.9012 24.8638 37.3893 24.2402 38.0009C24.3642 38.7643 24.6344 39.4999 25.0375 40.1718C25.0847 40.1064 25.1348 40.0438 25.1849 39.9797L25.375 39.7265C25.5106 39.5539 25.6477 39.386 25.7862 39.2227C25.8658 39.1295 25.9439 39.0432 26.022 38.9541C26.1001 38.8651 26.1841 38.7747 26.2651 38.6883C26.3683 38.5771 26.47 38.4699 26.5717 38.3655C26.6733 38.2611 26.7824 38.1512 26.887 38.0496L27.1508 37.7992L27.3365 37.6294C27.4839 37.4986 27.6195 37.3775 27.7536 37.262C27.8081 37.2175 27.8612 37.1702 27.9127 37.1229L28.1456 36.9336L28.2929 36.8126C28.4035 36.7277 28.5037 36.6497 28.5995 36.5788L28.7469 36.4702L28.8943 36.3644L29.0313 36.2684L29.1521 36.1863L29.2568 36.1154L29.3025 36.0862L29.3408 36.0611C29.3408 36.0611 29.329 36.0681 29.3157 36.0653Z" fill="url(#paint0_linear_111_316)"/>
<path d="M28.2029 23.7656C28.3231 23.4923 28.467 23.2289 28.6333 22.978C28.7305 22.7164 28.8396 22.4701 28.956 22.2294C28.0891 20.6456 26.9984 19.1803 25.7138 17.8738L25.7285 17.8655C25.6328 17.7694 25.534 17.6762 25.4338 17.5871C25.3336 17.4981 25.2732 17.4285 25.1906 17.3519C21.7141 14.0331 17.6747 11.6299 15.4008 4.78901C15.2106 4.1155 14.7744 4 14.7744 4C14.3794 4.17394 13.6042 4.44947 13.6042 4.44947C12.6366 5.04486 11.7462 5.74543 10.9515 6.53681C9.97518 7.46563 9.16007 8.53401 8.53613 9.7026C12.328 13.4598 16.2849 14.6969 20.0562 16.6506C20.1667 16.7077 20.2743 16.7675 20.3849 16.8259C20.4954 16.8844 20.6487 16.9651 20.7798 17.0347L20.768 17.0486C24.0208 18.8559 26.7382 21.4088 28.6686 24.4712C28.5124 24.2346 28.3606 24.0036 28.2029 23.7656Z" fill="url(#paint1_linear_111_316)"/>
<path d="M31.2562 25.6609C31.2562 25.6609 31.2562 25.6526 31.2562 25.6484C30.7491 23.4887 29.8831 21.4184 28.6904 19.5144C29.8834 21.4227 30.7494 23.4972 31.2562 25.6609Z" fill="url(#paint2_linear_111_316)"/>
<path d="M20.7616 12.0461L20.7733 12.0322C20.6422 11.9598 20.5095 11.893 20.3784 11.8234C20.2472 11.7538 20.1603 11.7051 20.0497 11.6494C15.3574 9.21705 10.3762 7.89225 5.78706 1.45772C5.36857 0.814825 4.87927 0.82178 4.87927 0.82178C4.52705 1.11818 3.8123 1.62889 3.8123 1.62889C3.001 2.53005 2.30502 3.51838 1.73877 4.57342C1.31828 5.32732 0.972921 6.11648 0.70717 6.93073C0.9017 7.30644 1.14928 7.74892 1.44403 8.24852C1.6813 8.60753 1.9112 9.01802 2.20594 9.4174C2.50069 9.81677 2.79543 10.2523 3.14323 10.6698C3.49103 11.0873 3.8624 11.5117 4.24852 11.9375C4.63463 12.3634 5.08117 12.7446 5.50853 13.1468C5.97864 13.4975 6.41343 13.9066 6.91005 14.2113C7.40673 14.5161 7.87237 14.8654 8.38378 15.0866C8.85766 15.3461 9.35591 15.5636 9.87225 15.7365C10.3659 15.8979 10.8242 16.0997 11.2811 16.1623L12.5146 16.4127L13.4873 16.4726L14.3435 16.5255L13.4873 16.5672L12.4969 16.6145L11.2133 16.4991C10.7329 16.4837 10.2436 16.3321 9.70868 16.2207C9.14785 16.0988 8.59984 15.9292 8.07132 15.7142C7.49512 15.5375 6.96608 15.2328 6.3987 14.9642C5.83131 14.6956 5.32431 14.3227 4.77759 13.9998C4.27357 13.6269 3.74598 13.2637 3.27881 12.8643C2.81164 12.465 2.34152 12.0683 1.93773 11.6453C1.51035 11.239 1.12865 10.8229 0.773485 10.4207C0.520007 10.1508 0.301894 9.87943 0.0911529 9.61643C0.00273647 10.3508 -0.0214147 11.0909 0.0189453 11.829C0.0467866 13.3419 0.336 14.8403 0.875175 16.2653C0.956228 16.3321 1.03286 16.3961 1.11981 16.4642C1.43371 16.6925 1.7594 16.9666 2.13668 17.2101C2.51395 17.4536 2.90007 17.7306 3.32597 17.9769C3.75188 18.2232 4.19988 18.4639 4.65969 18.706C5.11949 18.9482 5.61612 19.1305 6.10393 19.3406C6.60797 19.4937 7.10459 19.7052 7.61745 19.8124C8.13031 19.9195 8.63284 20.0739 9.13538 20.106C9.61483 20.1826 10.1008 20.217 10.587 20.2089C11.0498 20.1992 11.4992 20.2312 11.8986 20.1491L13.0083 19.9946L13.8395 19.7581L14.5764 19.5494L13.8822 19.8471L13.0687 20.1922L11.9634 20.4886C11.5597 20.6278 11.0998 20.6487 10.6165 20.7196C10.1082 20.7902 9.59424 20.8172 9.08086 20.8003C8.53998 20.8296 7.99621 20.7391 7.43178 20.689C6.8673 20.6389 6.31616 20.4858 5.74582 20.3843C5.19907 20.2298 4.63758 20.0878 4.10852 19.9C3.57945 19.7121 3.05333 19.5243 2.57142 19.2961C2.49332 19.2641 2.42405 19.2251 2.35184 19.1917C3.11022 20.3554 4.03345 21.4159 5.09591 22.3436C6.2947 23.291 7.59233 24.1209 8.96885 24.8205C9.10591 24.8832 9.23561 24.9597 9.37557 25.0181V25.0251C12.351 26.4862 16.5452 27.8472 21.9538 27.939C26.5341 28.3064 29.8309 31.4249 31.1483 35.292C32.2982 30.8785 31.9081 26.2324 30.0361 22.0451C28.164 17.8579 24.9101 14.3533 20.7586 12.053L20.7616 12.0461Z" fill="url(#paint3_linear_111_316)"/>
<path d="M40.3633 13.5611C33.6151 10.707 29.869 15.6916 29.869 15.6916L29.9058 15.7166C29.3569 16.4018 28.9271 17.1651 28.6325 17.9779C28.4662 18.2288 28.3223 18.4922 28.2021 18.7655C29.8617 21.1832 30.9794 23.8961 31.4865 26.737C31.9937 29.578 31.8795 32.4869 31.1511 35.2847C31.1511 35.2847 39.2565 33.4756 37.9715 22.9931C38.2013 20.0945 40.0155 17.5256 40.5564 16.9426C41.9048 16.6434 43.6423 14.9624 43.6423 14.9624C43.6423 14.9624 42.8053 13.7615 40.3633 13.5611Z" fill="url(#paint4_linear_111_316)"/>
<path style="mix-blend-mode:multiply" d="M29.0473 36.0447C29.1122 36.0447 29.1756 36.0516 29.2389 36.053C28.8381 35.9751 27.13 35.655 24.2032 36.2659C24.1238 36.8428 24.1357 37.4276 24.2386 38.0012C24.8621 37.3896 25.6085 36.9015 26.4343 36.5655C27.2599 36.2296 28.1483 36.0525 29.0473 36.0447Z" fill="url(#paint5_linear_111_316)"/>
<path style="mix-blend-mode:multiply" d="M25.0358 40.1718C24.6327 39.4999 24.3625 38.7643 24.2385 38.001C23.2864 38.9283 22.6544 40.1065 22.426 41.38C22.1976 42.6535 22.3835 43.9625 22.9593 45.1341C23.2231 43.1219 24.1309 41.3839 25.1803 39.9854C25.1331 40.0438 25.083 40.1064 25.0358 40.1718Z" fill="url(#paint6_linear_111_316)"/>
<path d="M29.2387 36.054L29.3094 36.0665C29.1429 36.0372 28.0744 35.7867 26.1689 35.9644C27.9035 35.7993 28.9381 35.9952 29.2387 36.054Z" fill="url(#paint7_linear_111_316)"/>
<path d="M22.9593 45.1344C22.3836 43.9628 22.1975 42.6538 22.426 41.3804C22.6543 40.1068 23.2863 38.9286 24.2385 38.0013C24.1356 37.4278 24.1237 36.8429 24.2032 36.2661C24.8513 36.1301 25.5072 36.0292 26.1676 35.9641C24.6926 36.1166 23.2412 36.4294 21.8422 36.8964C8.42109 41.2437 11.8327 52.1882 12.2439 53.0454C13.094 53.4326 14.0197 53.6496 14.9629 53.6828C14.8978 53.3824 14.8486 53.0791 14.8155 52.7741C14.7505 52.2229 14.7367 51.6674 14.7743 51.1139C14.8155 50.8357 14.8259 50.549 14.8951 50.279C14.9463 50.0119 15.0182 49.7486 15.1103 49.4914C15.1854 49.2491 15.284 49.0138 15.405 48.7887C15.5004 48.5826 15.6153 48.3851 15.7484 48.1986C15.8737 48.0289 15.9871 47.8716 16.0874 47.7325L16.4013 47.4138L16.671 47.1355L16.4411 47.4416L16.1787 47.7895L15.9149 48.2807C15.8125 48.4736 15.7287 48.6749 15.6644 48.8819C15.5802 49.108 15.518 49.3409 15.4787 49.5777C15.4251 49.8273 15.3921 50.0803 15.38 50.3347C15.3505 50.5907 15.38 50.8579 15.38 51.1182C15.4169 51.6316 15.5011 52.141 15.632 52.6405C15.7192 52.9894 15.8295 53.3329 15.9621 53.6688C17.4123 53.5826 18.8447 53.2277 20.2875 53.0093C20.2624 52.9647 20.2344 52.9272 20.2108 52.8812C19.9052 52.3312 19.6507 51.7571 19.4504 51.1655C19.3737 50.8565 19.2617 50.5587 19.2161 50.2484C19.155 49.9499 19.1171 49.6476 19.1026 49.3439C19.076 49.062 19.076 48.7784 19.1026 48.4964C19.1142 48.2449 19.1493 47.9949 19.2072 47.7492L19.3546 47.1313C19.4268 46.956 19.4917 46.8029 19.5432 46.6777C19.6479 46.4272 19.7083 46.2852 19.7083 46.2852C19.7083 46.2852 19.6655 46.4328 19.5933 46.693C19.5565 46.821 19.5138 46.9713 19.4622 47.1564C19.4415 47.34 19.4165 47.5474 19.3885 47.7728C19.362 48.0146 19.3585 48.2582 19.3782 48.5006C19.3824 48.7699 19.4135 49.0383 19.471 49.3021C19.5194 49.585 19.5899 49.8641 19.6818 50.1371C19.7599 50.4154 19.9013 50.6937 20.006 50.972C20.2602 51.5004 20.5625 52.0069 20.9094 52.486C21.0111 52.6336 21.1186 52.7643 21.2262 52.8966C22.7501 52.7574 24.2931 52.8757 25.8906 53.7662C23.2909 50.5546 22.6307 47.6351 22.9593 45.1344Z" fill="url(#paint8_linear_111_316)"/>
<path d="M43.6973 43.0262V31.9758H45.899V40.9903H51.8661V43.0234L43.6973 43.0262Z" fill="#918F94"/>
<path d="M56.5879 43.0262V31.9758H58.7983V43.0262H56.5879Z" fill="#918F94"/>
<path d="M106.256 43.0262V31.9758H108.459V43.0262H106.256Z" fill="#918F94"/>
<path d="M115.589 42.5946C114.896 42.3128 114.266 41.9096 113.732 41.4062C113.184 40.9077 112.756 40.3053 112.473 39.6389C112.158 38.9598 111.997 38.2261 112 37.4847C111.999 36.5395 112.256 35.61 112.744 34.7849C113.233 33.9598 113.937 33.2667 114.79 32.7719C115.643 32.277 116.616 31.997 117.616 31.9585C118.617 31.9199 119.611 32.1242 120.503 32.5517C121.319 32.9347 122.026 33.4951 122.567 34.1868L122.819 34.4832L121.135 35.6563L120.898 35.3599C120.55 34.9137 120.095 34.5517 119.571 34.3038C119.046 34.0558 118.466 33.9289 117.879 33.9335C117.235 33.9335 116.603 34.0889 116.041 34.3847C115.478 34.6806 115.006 35.1072 114.667 35.6241C114.329 36.1409 114.136 36.7309 114.107 37.3379C114.078 37.945 114.214 38.5489 114.502 39.0924C114.789 39.636 115.219 40.1011 115.75 40.4436C116.282 40.7861 116.898 40.9946 117.539 41.0494C118.18 41.1041 118.825 41.0033 119.413 40.7564C120.001 40.5096 120.512 40.1249 120.898 39.6389L121.135 39.3606L122.802 40.5183L122.551 40.8162C122.01 41.5047 121.305 42.0636 120.494 42.4482C119.682 42.8327 118.787 43.0321 117.879 43.0301C117.093 43.029 116.314 42.881 115.589 42.5946Z" fill="#918F94"/>
<path d="M70.9379 34.5738V39.2077L65.7606 31.9758H63.6221V43.0262H65.8256V35.7789L71.0203 43.0262H73.1397V34.5738H70.9379Z" fill="#918F94"/>
<path d="M82.1029 37.2595L88.0494 31.9758H84.8923L80.2254 36.1199V31.9758H78.0381V43.0262H80.2254V38.9294L82.0983 37.2526L82.1029 37.2595Z" fill="#5E5E61"/>
<path d="M85.067 37.5447L83.415 38.9961L86.455 43.026H89.2008L85.067 37.5447Z" fill="#5E5E61"/>
<path d="M96.6094 43.0037V34.0018H93.7324V31.9534H101.69V34.0018H98.8123V43.0037H96.6094Z" fill="#918F94"/>
<path d="M46.4753 48.7582H44.1822V48.7707C44.2471 49.2369 44.6243 49.5862 45.0458 49.5931C45.3183 49.5813 45.577 49.4765 45.7738 49.2981L46.241 49.5625C46.126 49.6848 45.9924 49.7903 45.8446 49.8756C45.6046 50.0042 45.3349 50.0754 45.059 50.0829C44.8686 50.084 44.68 50.0462 44.5063 49.9722C44.3326 49.8983 44.1779 49.7899 44.0525 49.6544C43.8155 49.4117 43.6731 49.1 43.6487 48.7707C43.6457 48.7276 43.6457 48.6844 43.6487 48.6413C43.6492 48.5299 43.662 48.4189 43.687 48.3101C43.7454 48.0564 43.8735 47.8217 44.0584 47.6296C44.1861 47.4976 44.3415 47.3922 44.5149 47.3204C44.6883 47.2485 44.8756 47.2116 45.065 47.2122C45.2554 47.2116 45.4438 47.2484 45.6184 47.3203C45.7929 47.3921 45.9497 47.4975 46.0789 47.6296C46.2656 47.8204 46.3934 48.0557 46.4488 48.3101C46.4785 48.4577 46.4874 48.6084 46.4753 48.7582ZM45.8858 48.3171V48.3045C45.8323 48.1349 45.724 47.9852 45.576 47.8765C45.4281 47.7677 45.2479 47.7052 45.0605 47.6978C44.8738 47.7072 44.6946 47.7704 44.547 47.8789C44.3995 47.9874 44.2907 48.1359 44.2352 48.3045V48.3171H45.8858Z" fill="#918F94"/>
<path d="M49.6179 47.2244L48.4035 50.0353H47.7993L46.5908 47.2258H47.195L48.1043 49.3395L49.0077 47.2286L49.6179 47.2244Z" fill="#918F94"/>
<path d="M52.9035 48.6296C52.902 49.0196 52.7372 49.3932 52.4451 49.669C52.1531 49.9448 51.7574 50.1003 51.3443 50.1018C50.9316 50.1018 50.5357 49.947 50.2439 49.6714C49.9521 49.3958 49.7881 49.022 49.7881 48.6323C49.7881 48.2426 49.9521 47.8688 50.2439 47.5932C50.5357 47.3177 50.9316 47.1629 51.3443 47.1629C51.5489 47.1619 51.7516 47.1992 51.9408 47.2725C52.13 47.3458 52.302 47.4537 52.4469 47.5901C52.5918 47.7264 52.7068 47.8884 52.7851 48.0668C52.8635 48.2451 52.9037 48.4364 52.9035 48.6296ZM52.345 48.6296C52.3452 48.4426 52.2868 48.2598 52.177 48.1042C52.0673 47.9487 51.9111 47.8274 51.7283 47.7556C51.5455 47.6839 51.3442 47.665 51.15 47.7013C50.9558 47.7375 50.7774 47.8275 50.6373 47.9595C50.4972 48.0916 50.4018 48.26 50.363 48.4433C50.3243 48.6266 50.344 48.8167 50.4197 48.9894C50.4954 49.1621 50.6237 49.3098 50.7882 49.4137C50.9528 49.5176 51.1463 49.573 51.3443 49.573C51.4758 49.5736 51.6061 49.5496 51.7276 49.5024C51.8492 49.4552 51.9596 49.3857 52.0527 49.298C52.1457 49.2103 52.2194 49.1061 52.2696 48.9914C52.3197 48.8766 52.3454 48.7537 52.345 48.6296Z" fill="#918F94"/>
<path d="M53.4863 50.0355V45.531H54.039V50.0355H53.4863Z" fill="#918F94"/>
<path d="M54.8574 48.8316V47.2244H55.4159V48.8316C55.4249 49.031 55.5151 49.2193 55.6676 49.3574C55.8202 49.4955 56.0233 49.5725 56.2346 49.5725C56.4459 49.5725 56.649 49.4955 56.8016 49.3574C56.9541 49.2193 57.0443 49.031 57.0532 48.8316V47.2244H57.612V48.8316C57.6115 49.0002 57.5749 49.167 57.5041 49.322C57.434 49.4769 57.3312 49.6168 57.2021 49.7334C56.9387 49.9659 56.5915 50.0952 56.2309 50.0952C55.8703 50.0952 55.5232 49.9659 55.2597 49.7334C55.132 49.6162 55.0306 49.4761 54.9615 49.3211C54.8923 49.1662 54.857 48.9998 54.8574 48.8316Z" fill="#918F94"/>
<path d="M61.0264 49.4938C60.9731 49.555 60.922 49.6163 60.8629 49.6719C60.5682 49.9431 60.1732 50.0948 59.762 50.0948C59.3507 50.0948 58.9557 49.9431 58.6611 49.6719C58.443 49.4666 58.2945 49.2047 58.2348 48.9195C58.175 48.6343 58.2058 48.3388 58.3241 48.0703C58.4424 47.8019 58.6425 47.5728 58.8989 47.4119C59.1559 47.2511 59.4569 47.1659 59.7649 47.1671C59.9679 47.1648 60.1697 47.2005 60.3582 47.2722C60.5468 47.3438 60.7179 47.45 60.8629 47.5846C60.9203 47.6377 60.9725 47.6955 61.0189 47.7571L60.5769 48.0689C60.4748 47.9391 60.3397 47.8362 60.1837 47.7698C60.0282 47.7034 59.8565 47.6758 59.6866 47.6896C59.5161 47.7034 59.3519 47.7582 59.2104 47.8486C59.0688 47.9391 58.954 48.0622 58.8769 48.2064C58.8003 48.3506 58.7638 48.511 58.7707 48.6724C58.7777 48.8337 58.8287 48.9906 58.918 49.1281C59.0079 49.2657 59.1332 49.3793 59.2823 49.4581C59.4319 49.537 59.5996 49.5785 59.7707 49.5787C59.929 49.5776 60.0851 49.5408 60.2254 49.4713C60.3652 49.4019 60.4859 49.3017 60.5769 49.1793L61.0264 49.4938Z" fill="#918F94"/>
<path d="M61.6543 46.417C61.6543 46.3247 61.6926 46.2362 61.7622 46.171C61.8312 46.1057 61.9246 46.0691 62.0226 46.0691C62.1201 46.0691 62.214 46.1057 62.283 46.171C62.3521 46.2362 62.3909 46.3247 62.3909 46.417C62.3909 46.5092 62.3521 46.5977 62.283 46.6629C62.214 46.7282 62.1201 46.7649 62.0226 46.7649C61.9246 46.7649 61.8312 46.7282 61.7622 46.6629C61.6926 46.5977 61.6543 46.5092 61.6543 46.417ZM61.7454 47.2199H62.3039V50.035H61.7454V47.2199Z" fill="#918F94"/>
<path d="M66.1434 48.6296C66.1411 49.0196 65.9758 49.393 65.6835 49.6686C65.3911 49.9443 64.9956 50.1 64.5826 50.1018C64.1696 50.1018 63.774 49.947 63.4823 49.6714C63.1899 49.3958 63.0264 49.022 63.0264 48.6323C63.0264 48.2426 63.1899 47.8688 63.4823 47.5932C63.774 47.3176 64.1696 47.1629 64.5826 47.1629C64.7873 47.1621 64.9898 47.1995 65.1788 47.2728C65.3679 47.3462 65.5402 47.4541 65.6852 47.5904C65.8302 47.7266 65.9451 47.8885 66.0239 48.0669C66.1022 48.2452 66.1429 48.4364 66.1434 48.6296ZM65.5831 48.6296C65.5837 48.4426 65.5251 48.2598 65.4155 48.1042C65.3053 47.9486 65.1493 47.8273 64.9666 47.7556C64.7838 47.6839 64.5826 47.665 64.3883 47.7013C64.194 47.7375 64.0153 47.8274 63.8755 47.9595C63.7352 48.0916 63.64 48.26 63.6012 48.4433C63.5623 48.6266 63.582 48.8167 63.658 48.9894C63.7334 49.1621 63.8616 49.3098 64.0263 49.4137C64.1911 49.5175 64.3848 49.573 64.5826 49.573C64.7137 49.5736 64.8442 49.5496 64.966 49.5024C65.0872 49.4551 65.198 49.3857 65.2908 49.298C65.3836 49.2103 65.4578 49.1061 65.5077 48.9914C65.5582 48.8766 65.5837 48.7537 65.5831 48.6296Z" fill="#918F94"/>
<path d="M69.5782 48.5257V50.0356H69.0197V48.5257C69.0359 48.408 69.0249 48.2884 68.9883 48.1748C68.9518 48.0612 68.8897 47.9564 68.8068 47.8671C68.7238 47.7779 68.6218 47.7065 68.5069 47.6575C68.3926 47.6086 68.2685 47.5833 68.1427 47.5833C68.0168 47.5833 67.8927 47.6086 67.7778 47.6575C67.6636 47.7065 67.5615 47.7779 67.4785 47.8671C67.395 47.9564 67.3335 48.0612 67.297 48.1748C67.2599 48.2884 67.2494 48.408 67.2657 48.5257V50.0356H66.7129V47.2246H67.2715V47.4946C67.5209 47.2976 67.8312 47.1832 68.156 47.169C68.3451 47.1674 68.5324 47.2015 68.7076 47.2691C68.8828 47.3367 69.0417 47.4365 69.1757 47.5628C69.439 47.8212 69.5834 48.1673 69.5782 48.5257Z" fill="#918F94"/>
<path d="M72.6412 47.2243H73.1969V50.0353H72.6366V49.7111C72.3605 49.9452 72.0072 50.0815 71.636 50.0965C71.4284 50.1025 71.2213 50.0691 71.027 49.9981C70.8333 49.9272 70.6564 49.8202 70.5073 49.6834C70.3577 49.5467 70.2387 49.3831 70.1581 49.2022C70.0769 49.0213 70.0352 48.8269 70.0352 48.6305C70.0352 48.4341 70.0769 48.2397 70.1581 48.0588C70.2387 47.8779 70.3577 47.7143 70.5073 47.5775C70.6564 47.4408 70.8333 47.3338 71.027 47.2628C71.2213 47.1919 71.4284 47.1584 71.636 47.1645C72.0072 47.1794 72.3611 47.3162 72.6366 47.5514L72.6412 47.2243ZM72.6412 48.6298C72.6401 48.4432 72.5803 48.261 72.4695 48.1064C72.3593 47.9518 72.2021 47.8315 72.0194 47.7608C71.8367 47.6902 71.6355 47.6723 71.4417 47.7094C71.248 47.7464 71.0705 47.8369 70.9307 47.9692C70.7915 48.1016 70.697 48.27 70.6587 48.4531C70.6204 48.6362 70.6407 48.8259 70.7167 48.9982C70.7927 49.1705 70.9209 49.3178 71.085 49.4214C71.2497 49.5249 71.4429 49.5802 71.6407 49.5803C71.9063 49.5788 72.161 49.478 72.3483 49.2999C72.5362 49.1219 72.6412 48.8809 72.6412 48.6298Z" fill="#918F94"/>
<path d="M79.1167 48.5257V50.0356H78.5582V48.5257C78.5582 48.3043 78.4648 48.0919 78.2989 47.9353C78.1336 47.7787 77.9085 47.6908 77.6742 47.6908C77.4393 47.6908 77.2142 47.7787 77.0489 47.9353C76.883 48.0919 76.7897 48.3043 76.7897 48.5257V50.0356H76.2311V48.5257C76.2473 48.408 76.2369 48.2883 76.2003 48.1747C76.1632 48.0612 76.1017 47.9563 76.0188 47.8671C75.9358 47.7779 75.8332 47.7065 75.7189 47.6575C75.6041 47.6085 75.4799 47.5832 75.3541 47.5832C75.2288 47.5832 75.1041 47.6085 74.9898 47.6575C74.875 47.7065 74.7729 47.7779 74.6899 47.8671C74.607 47.9563 74.5449 48.0612 74.5084 48.1747C74.4719 48.2883 74.4614 48.408 74.4777 48.5257V50.0356H73.9336V47.2246H74.4922V47.4946C74.741 47.2975 75.0519 47.1832 75.3761 47.169C75.7613 47.1753 76.1278 47.3254 76.3964 47.5864C76.4469 47.6331 76.4933 47.6843 76.5333 47.7395C76.5791 47.6858 76.6284 47.6347 76.6806 47.5864C76.9486 47.3254 77.3152 47.1753 77.7003 47.169C77.8894 47.1684 78.0762 47.2031 78.2507 47.2712C78.4253 47.3391 78.5837 47.4391 78.7171 47.5652C78.8505 47.6913 78.9566 47.8411 79.028 48.0059C79.0999 48.1708 79.1364 48.3475 79.1359 48.5257H79.1167Z" fill="#918F94"/>
<path d="M82.7448 48.6296C82.7431 49.0196 82.5783 49.3932 82.286 49.669C81.9943 49.9448 81.5981 50.1003 81.1851 50.1018C80.7727 50.1018 80.3766 49.947 80.0848 49.6714C79.7931 49.3958 79.6289 49.022 79.6289 48.6323C79.6289 48.2426 79.7931 47.8688 80.0848 47.5932C80.3766 47.3177 80.7727 47.1629 81.1851 47.1629C81.3899 47.1619 81.5923 47.1992 81.782 47.2725C81.9711 47.3458 82.1427 47.4537 82.2877 47.5901C82.4328 47.7264 82.5476 47.8884 82.6259 48.0668C82.7042 48.2451 82.7448 48.4364 82.7448 48.6296ZM82.1862 48.6296C82.1862 48.4426 82.1277 48.2598 82.018 48.1042C81.9084 47.9487 81.7524 47.8274 81.5691 47.7556C81.3864 47.6839 81.1851 47.665 80.9908 47.7013C80.7971 47.7375 80.6184 47.8275 80.4781 47.9595C80.3383 48.0916 80.2426 48.26 80.2043 48.4433C80.1654 48.6266 80.1852 48.8167 80.2606 48.9894C80.3365 49.1621 80.4647 49.3098 80.6295 49.4137C80.7936 49.5176 80.9873 49.573 81.1851 49.573C81.3168 49.5736 81.4473 49.5496 81.5685 49.5024C81.6903 49.4552 81.8005 49.3857 81.8939 49.298C81.9867 49.2103 82.0604 49.1061 82.1108 48.9914C82.1607 48.8766 82.1862 48.7537 82.1862 48.6296Z" fill="#918F94"/>
<path d="M85.4066 49.2005C85.4084 49.3585 85.3567 49.5129 85.2593 49.6416C85.1607 49.7773 85.0232 49.8838 84.8631 49.9492C84.6955 50.0188 84.5139 50.0543 84.3307 50.0535C84.2286 50.0524 84.1265 50.0421 84.0256 50.0229C83.6996 49.9614 83.3951 49.8219 83.1416 49.618L83.4925 49.2562C83.7141 49.4559 84.0041 49.5735 84.3104 49.5874C84.4287 49.5874 84.5464 49.5641 84.6549 49.5192C84.7233 49.4939 84.7819 49.4501 84.8237 49.3934C84.8649 49.3366 84.8881 49.2695 84.8892 49.2005C84.8892 49.0098 84.7141 48.8944 84.3104 48.8262C84.0726 48.7861 83.84 48.7222 83.6161 48.6355C83.489 48.5739 83.3823 48.4799 83.3087 48.3641C83.235 48.2482 83.1967 48.1152 83.199 47.9801C83.2025 47.8262 83.2536 47.6766 83.3464 47.5501C83.4432 47.431 83.5714 47.3379 83.7176 47.2802C83.8788 47.2107 84.054 47.1751 84.2309 47.1758C84.3028 47.1758 84.3782 47.1758 84.4519 47.1883C84.7442 47.2339 85.0191 47.3499 85.2506 47.525L84.9264 47.8813C84.7355 47.7321 84.4971 47.6478 84.25 47.642C84.1404 47.6388 84.0314 47.6597 83.9316 47.7032C83.8724 47.7267 83.8208 47.7651 83.7831 47.8141C83.7448 47.8631 83.7222 47.921 83.7164 47.9815C83.7164 48.1652 83.8724 48.2598 84.2692 48.3433C84.5041 48.3873 84.7344 48.4506 84.9571 48.5326C85.0806 48.5872 85.1874 48.6693 85.2697 48.7719C85.3608 48.8982 85.4084 49.0478 85.4066 49.2005Z" fill="#918F94"/>
<path d="M90.1449 49.4941C90.0944 49.556 90.0405 49.6154 89.983 49.6722C89.838 49.8067 89.6664 49.9128 89.4784 49.9844C89.2899 50.0561 89.0881 50.0918 88.8851 50.0897C88.6774 50.0957 88.4703 50.0623 88.276 49.9913C88.0823 49.9204 87.9054 49.8134 87.7557 49.6766C87.6067 49.5399 87.4878 49.3763 87.4066 49.1954C87.3259 49.0145 87.2842 48.8201 87.2842 48.6237C87.2842 48.4273 87.3259 48.2329 87.4066 48.052C87.4878 47.8711 87.6067 47.7075 87.7557 47.5707C87.9054 47.434 88.0823 47.327 88.276 47.256C88.4703 47.1851 88.6774 47.1516 88.8851 47.1577C89.0881 47.1555 89.2899 47.1913 89.4784 47.2629C89.6664 47.3346 89.838 47.4407 89.983 47.5751C90.0399 47.6283 90.0915 47.686 90.1379 47.7477L89.6959 48.0594C89.5938 47.9297 89.4581 47.8267 89.3027 47.7603C89.1466 47.6939 88.975 47.6664 88.8044 47.6802C88.6345 47.694 88.4703 47.7489 88.3288 47.8394C88.1873 47.93 88.0724 48.0533 87.9953 48.1976C87.9187 48.3419 87.8822 48.5024 87.8897 48.6638C87.8967 48.8251 87.9477 48.982 88.0376 49.1196C88.1275 49.257 88.2528 49.3706 88.4025 49.4493C88.5515 49.528 88.7197 49.5693 88.8909 49.5692C89.0492 49.5682 89.2046 49.5314 89.3444 49.4619C89.4848 49.3924 89.6049 49.2922 89.6959 49.1698L90.1449 49.4941Z" fill="#918F94"/>
<path d="M93.569 48.6296C93.5673 49.0196 93.4026 49.3932 93.1102 49.669C92.8185 49.9448 92.4229 50.1003 92.0093 50.1018C91.5969 50.1018 91.2008 49.947 90.909 49.6714C90.6173 49.3958 90.4531 49.022 90.4531 48.6323C90.4531 48.2426 90.6173 47.8688 90.909 47.5932C91.2008 47.3177 91.5969 47.1629 92.0093 47.1629C92.2141 47.1619 92.4171 47.1992 92.6062 47.2725C92.7953 47.3458 92.9675 47.4537 93.112 47.5901C93.257 47.7264 93.3718 47.8884 93.4507 48.0668C93.529 48.2451 93.569 48.4364 93.569 48.6296ZM93.0105 48.6296C93.0105 48.4426 92.9519 48.2598 92.8423 48.1042C92.7326 47.9487 92.5766 47.8274 92.3933 47.7556C92.2106 47.6839 92.0093 47.665 91.815 47.7013C91.6213 47.7375 91.4426 47.8275 91.3029 47.9595C91.1625 48.0916 91.0668 48.26 91.0285 48.4433C90.9897 48.6266 91.0094 48.8167 91.0848 48.9894C91.1608 49.1621 91.2889 49.3098 91.4537 49.4137C91.6184 49.5176 91.8115 49.573 92.0093 49.573C92.141 49.5736 92.2715 49.5496 92.3927 49.5024C92.5145 49.4552 92.6247 49.3857 92.7181 49.298C92.8109 49.2103 92.8846 49.1061 92.9351 48.9914C92.9849 48.8766 93.0105 48.7537 93.0105 48.6296Z" fill="#918F94"/>
<path d="M97.0051 48.5257V50.0356H96.4454V48.5257C96.4616 48.408 96.4506 48.2884 96.4141 48.1748C96.3775 48.0612 96.3155 47.9563 96.2325 47.8671C96.1496 47.7779 96.0475 47.7064 95.9332 47.6575C95.8184 47.6086 95.6942 47.5833 95.5684 47.5833C95.4425 47.5833 95.3184 47.6086 95.2035 47.6575C95.0893 47.7064 94.9872 47.7779 94.9042 47.8671C94.8213 47.9563 94.7592 48.0612 94.7227 48.1748C94.6856 48.2884 94.6751 48.408 94.6914 48.5257V50.0356H94.1328V47.2246H94.6914V47.4946C94.9385 47.299 95.2465 47.1847 95.5684 47.169C95.7575 47.1676 95.9454 47.2016 96.1206 47.2692C96.2963 47.3368 96.4552 47.4366 96.5898 47.5628C96.8572 47.8195 97.0063 48.1656 97.0051 48.5257Z" fill="#918F94"/>
<path d="M97.8541 49.1018V47.7283H97.4121V47.2246H97.8541V46.1392H98.4127V47.2246H99.3279V47.7283H98.4127V49.0893C98.4144 49.2019 98.4608 49.3099 98.5426 49.3919C98.6244 49.4738 98.7357 49.5238 98.8546 49.5318H99.3546L99.5019 50.0341H98.8401C98.7102 50.0347 98.582 50.0109 98.462 49.9643C98.3419 49.9176 98.2328 49.8489 98.1412 49.7622C98.0496 49.6755 97.9771 49.5725 97.9278 49.4591C97.8785 49.3458 97.8535 49.2243 97.8541 49.1018Z" fill="#918F94"/>
<path d="M100.029 46.417C100.029 46.3247 100.068 46.2362 100.137 46.171C100.206 46.1057 100.3 46.0691 100.398 46.0691C100.495 46.0691 100.589 46.1057 100.658 46.171C100.727 46.2362 100.766 46.3247 100.766 46.417C100.766 46.5092 100.727 46.5977 100.658 46.6629C100.589 46.7282 100.495 46.7649 100.398 46.7649C100.3 46.7649 100.206 46.7282 100.137 46.6629C100.068 46.5977 100.029 46.5092 100.029 46.417ZM100.119 47.2199H100.678V50.035H100.119V47.2199Z" fill="#918F94"/>
<path d="M104.158 47.2128V50.163C104.157 50.5532 103.992 50.9272 103.7 51.2032C103.408 51.4791 103.012 51.6345 102.599 51.6352C102.304 51.6365 102.014 51.5624 101.762 51.4209C101.661 51.3624 101.567 51.2943 101.481 51.2178L101.904 50.8684C102.104 51.0153 102.346 51.103 102.599 51.1203C102.865 51.1181 103.121 51.0163 103.309 50.8369C103.497 50.6575 103.603 50.4153 103.602 50.163V49.7037C103.326 49.9379 102.972 50.0741 102.601 50.0892C102.393 50.0952 102.186 50.0618 101.992 49.9908C101.798 49.9199 101.622 49.8129 101.472 49.6761C101.323 49.5394 101.204 49.3758 101.123 49.1949C101.042 49.014 101 48.8196 101 48.6232C101 48.4268 101.042 48.2324 101.123 48.0515C101.204 47.8706 101.323 47.707 101.472 47.5702C101.622 47.4335 101.798 47.3265 101.992 47.2555C102.186 47.1846 102.393 47.1511 102.601 47.1572C102.973 47.172 103.326 47.3089 103.602 47.544V47.2128H104.158ZM103.602 48.6183C103.601 48.4317 103.541 48.2496 103.43 48.0949C103.32 47.9402 103.163 47.82 102.98 47.7494C102.798 47.6787 102.596 47.6608 102.403 47.6979C102.209 47.735 102.031 47.8254 101.892 47.9578C101.752 48.0901 101.658 48.2584 101.619 48.4416C101.581 48.6247 101.601 48.8144 101.677 48.9867C101.753 49.1591 101.882 49.3063 102.046 49.4099C102.211 49.5135 102.404 49.5687 102.601 49.5687C102.867 49.5673 103.122 49.4665 103.309 49.2884C103.497 49.1103 103.602 48.8694 103.602 48.6183Z" fill="#918F94"/>
<path d="M108.036 48.6296C108.034 49.0196 107.869 49.3932 107.577 49.669C107.285 49.9448 106.89 50.1003 106.476 50.1018C106.064 50.1018 105.668 49.947 105.376 49.6714C105.084 49.3958 104.92 49.022 104.92 48.6323C104.92 48.2426 105.084 47.8688 105.376 47.5932C105.668 47.3177 106.064 47.1629 106.476 47.1629C106.681 47.1619 106.884 47.1992 107.073 47.2725C107.262 47.3458 107.434 47.4537 107.579 47.5901C107.724 47.7264 107.839 47.8884 107.917 48.0668C107.996 48.2451 108.036 48.4364 108.036 48.6296ZM107.477 48.6296C107.477 48.4426 107.419 48.2598 107.309 48.1042C107.199 47.9487 107.043 47.8274 106.86 47.7556C106.677 47.6839 106.476 47.665 106.282 47.7013C106.088 47.7375 105.909 47.8275 105.769 47.9595C105.629 48.0916 105.534 48.26 105.495 48.4433C105.456 48.6266 105.476 48.8167 105.552 48.9894C105.628 49.1621 105.756 49.3098 105.92 49.4137C106.085 49.5176 106.278 49.573 106.476 49.573C106.608 49.5736 106.738 49.5496 106.86 49.5024C106.981 49.4552 107.092 49.3857 107.185 49.298C107.278 49.2103 107.351 49.1061 107.402 48.9914C107.452 48.8766 107.477 48.7537 107.477 48.6296Z" fill="#918F94"/>
<defs>
<linearGradient id="paint0_linear_111_316" x1="25.7464" y1="38.0844" x2="34.693" y2="38.2639" gradientUnits="userSpaceOnUse">
<stop stop-color="#008500"/>
<stop offset="0.11" stop-color="#088D07"/>
<stop offset="0.29" stop-color="#1EA219"/>
<stop offset="0.51" stop-color="#42C536"/>
<stop offset="0.75" stop-color="#73F65F"/>
<stop offset="0.8" stop-color="#7DFF67"/>
</linearGradient>
<linearGradient id="paint1_linear_111_316" x1="18.1035" y1="18.4318" x2="22.5636" y2="4.79073" gradientUnits="userSpaceOnUse">
<stop stop-color="#008500"/>
<stop offset="0.79" stop-color="#1DD600"/>
</linearGradient>
<linearGradient id="paint2_linear_111_316" x1="29.6896" y1="22.8152" x2="30.8482" y2="21.7783" gradientUnits="userSpaceOnUse">
<stop stop-color="#008500"/>
<stop offset="0.79" stop-color="#1DD600"/>
</linearGradient>
<linearGradient id="paint3_linear_111_316" x1="8.54683" y1="27.7554" x2="26.3194" y2="7.18175" gradientUnits="userSpaceOnUse">
<stop stop-color="#00E1FF"/>
<stop offset="0.79" stop-color="#009CFF"/>
</linearGradient>
<linearGradient id="paint4_linear_111_316" x1="47.1306" y1="16.9635" x2="19.9299" y2="32.0467" gradientUnits="userSpaceOnUse">
<stop stop-color="#00E1FF"/>
<stop offset="0.79" stop-color="#007FFF"/>
</linearGradient>
<linearGradient id="paint5_linear_111_316" x1="24.2533" y1="38.331" x2="29.2861" y2="33.3644" gradientUnits="userSpaceOnUse">
<stop stop-color="#008500"/>
<stop offset="0.79" stop-color="#1DD600"/>
</linearGradient>
<linearGradient id="paint6_linear_111_316" x1="21.6477" y1="43.0273" x2="30.2419" y2="35.8161" gradientUnits="userSpaceOnUse">
<stop stop-color="#008500"/>
<stop offset="0.79" stop-color="#1DD600"/>
</linearGradient>
<linearGradient id="paint7_linear_111_316" x1="26.7968" y1="36.6878" x2="30.3698" y2="33.8638" gradientUnits="userSpaceOnUse">
<stop stop-color="#008500"/>
<stop offset="0.79" stop-color="#1DD600"/>
</linearGradient>
<linearGradient id="paint8_linear_111_316" x1="13.0309" y1="52.5515" x2="31.7213" y2="37.3616" gradientUnits="userSpaceOnUse">
<stop stop-color="#008500"/>
<stop offset="0.79" stop-color="#1DD600"/>
</linearGradient>
</defs>
</svg>
