<svg width="112" height="100" viewBox="0 0 112 100" fill="none" xmlns="http://www.w3.org/2000/svg">
<path d="M56 40.1737C61.3656 40.1737 65.7414 44.5409 65.7414 50C65.7414 55.1991 61.3656 59.6184 56 59.6184C50.6344 59.6184 46.2586 55.1991 46.2586 50C46.2586 44.5409 50.6344 40.1737 56 40.1737ZM31.8809 91.5929C35.1628 93.5685 42.3516 90.553 50.6344 82.7544C47.9256 79.6869 45.2688 76.3595 42.7684 72.8761C38.5708 72.4722 34.3976 71.8474 30.266 71.0044C27.6093 82.1305 28.5991 89.7732 31.8809 91.5929ZM35.5795 61.75L34.0688 59.0984C33.4958 60.6062 32.9228 62.1139 32.5581 63.5697C33.9647 63.8816 35.5274 64.1416 37.1423 64.4015L35.5795 61.75ZM69.6484 57.7987L73.8679 50L69.6484 42.2013C68.0856 39.4458 66.4186 37.0022 64.9079 34.5586C62.0949 34.4027 59.1256 34.4027 56 34.4027C52.8744 34.4027 49.9051 34.4027 47.0921 34.5586C45.5814 37.0022 43.9144 39.4458 42.3516 42.2013L38.1321 50L42.3516 57.7987C43.9144 60.5542 45.5814 62.9978 47.0921 65.4414C49.9051 65.5973 52.8744 65.5973 56 65.5973C59.1256 65.5973 62.0949 65.5973 64.9079 65.4414C66.4186 62.9978 68.0856 60.5542 69.6484 57.7987ZM56 22.8607C55.0102 24.0045 53.9684 25.2003 52.9265 26.604H59.0735C58.0316 25.2003 56.9898 24.0045 56 22.8607ZM56 77.1393C56.9898 75.9955 58.0316 74.7997 59.0735 73.396H52.9265C53.9684 74.7997 55.0102 75.9955 56 77.1393ZM80.067 8.40713C76.8372 6.43147 69.6484 9.44695 61.3656 17.2456C64.0744 20.3131 66.7312 23.6405 69.2316 27.1239C73.5033 27.5398 77.7228 28.1637 81.734 28.9956C84.3907 17.8695 83.4009 10.2268 80.067 8.40713ZM76.4205 38.25L77.9312 40.9016C78.5042 39.3938 79.0772 37.8861 79.4419 36.4303C78.0354 36.1184 76.4726 35.8584 74.8577 35.5985L76.4205 38.25ZM83.974 1.5963C91.6316 5.96355 92.4651 17.4536 89.2353 30.8673C102.467 34.7666 112 41.2135 112 50C112 58.7865 102.467 65.2334 89.2353 69.1327C92.4651 82.5464 91.6316 94.0364 83.974 98.4037C76.3684 102.771 66.0019 97.7798 56 88.2654C45.9981 97.7798 35.6316 102.771 27.974 98.4037C20.3684 94.0364 19.5349 82.5464 22.7647 69.1327C9.53302 65.2334 0 58.7865 0 50C0 41.2135 9.53302 34.7666 22.7647 30.8673C19.5349 17.4536 20.3684 5.96355 27.974 1.5963C35.6316 -2.77095 45.9981 2.22019 56 11.7346C66.0019 2.22019 76.3684 -2.77095 83.974 1.5963ZM82.4633 50C84.2344 53.8993 85.7972 57.7987 87.0995 61.75C98.0391 58.4745 104.186 53.7953 104.186 50C104.186 46.2046 98.0391 41.5255 87.0995 38.25C85.7972 42.2013 84.2344 46.1007 82.4633 50ZM29.5367 50C27.7656 46.1007 26.2028 42.2013 24.9005 38.25C13.9609 41.5255 7.81395 46.2046 7.81395 50C7.81395 53.7953 13.9609 58.4745 24.9005 61.75C26.2028 57.7987 27.7656 53.8993 29.5367 50ZM76.4205 61.75L74.8577 64.4015C76.4726 64.1416 78.0354 63.8816 79.4419 63.5697C79.0772 62.1139 78.5042 60.6062 77.9312 59.0984L76.4205 61.75ZM61.3656 82.7544C69.6484 90.553 76.8372 93.5685 80.067 91.5929C83.4009 89.7732 84.3907 82.1305 81.734 71.0044C77.7228 71.8363 73.5033 72.4601 69.2316 72.8761C66.7312 76.3595 64.0744 79.6869 61.3656 82.7544ZM35.5795 38.25L37.1423 35.5985C35.5274 35.8584 33.9647 36.1184 32.5581 36.4303C32.9228 37.8861 33.4958 39.3938 34.0688 40.9016L35.5795 38.25ZM50.6344 17.2456C42.3516 9.44695 35.1628 6.43147 31.8809 8.40713C28.5991 10.2268 27.6093 17.8695 30.266 28.9956C34.3976 28.1526 38.5708 27.5278 42.7684 27.1239C45.2688 23.6405 47.9256 20.3131 50.6344 17.2456Z" fill="white" fill-opacity="0.5"/>
</svg>
