<svg width="82" height="99" viewBox="0 0 82 99" fill="none" xmlns="http://www.w3.org/2000/svg">
<path d="M34.2427 87.1421C30.6309 88.0848 26.818 87.8914 23.3191 86.5879C19.8202 85.2845 16.8037 82.9337 14.677 79.8532C13.369 78.0184 12.4398 75.9393 11.944 73.7382C11.4483 71.5371 11.3961 69.2585 11.7904 67.0368C11.9254 66.3075 12.1093 65.5881 12.3406 64.8836L12.7718 63.5595L13.9502 64.4257C16.6649 66.43 19.7006 67.9535 22.9262 68.9302L23.7803 69.1901L23.6982 70.0481C23.5946 71.2637 23.9234 72.4768 24.6262 73.4718C25.2673 74.3989 26.1756 75.1065 27.229 75.4996C28.2824 75.8926 29.4303 75.9523 30.5184 75.6705C31.0172 75.5395 31.4925 75.3307 31.9268 75.0517L54.88 60.3585C55.4413 60.0035 55.9226 59.5347 56.2931 58.9821C56.6636 58.4295 56.9152 57.8052 57.0316 57.1492C57.1503 56.4795 57.1348 55.7927 56.9861 55.129C56.8373 54.4653 56.5583 53.8381 56.1652 53.2841C55.5241 52.3571 54.6158 51.6494 53.5624 51.2564C52.509 50.8633 51.3611 50.8037 50.273 51.0855C49.7742 51.2165 49.2989 51.4253 48.8646 51.7043L40.1062 57.3142C38.6687 58.2395 37.0963 58.934 35.4458 59.3726C31.8344 60.3158 28.0218 60.123 24.523 58.8203C21.0241 57.5176 18.0074 55.1677 15.8801 52.0879C14.5723 50.2523 13.6435 48.1723 13.1484 45.9705C12.6534 43.7686 12.6021 41.4895 12.9976 39.2674C13.388 37.0903 14.2257 35.0189 15.4572 33.1851C16.6888 31.3513 18.2872 29.7954 20.1505 28.6167L43.0996 13.9193C44.5371 12.9941 46.1095 12.2996 47.76 11.861C51.3718 10.9182 55.1847 11.1116 58.6836 12.4151C62.1825 13.7186 65.199 16.0693 67.3257 19.1498C68.6337 20.9846 69.5629 23.0638 70.0587 25.2649C70.5544 27.466 70.6066 29.7445 70.2123 31.9662C70.0773 32.6955 69.8934 33.4149 69.6621 34.1194L69.2309 35.4435L68.0566 34.5773C65.3409 32.5711 62.3038 31.0463 59.0765 30.0687L58.2224 29.8088L58.3045 28.9549C58.4091 27.738 58.0803 26.5232 57.3766 25.5271C56.7349 24.6007 55.8263 23.8939 54.7729 23.5016C53.7196 23.1093 52.572 23.0503 51.4843 23.3326C50.9855 23.4635 50.5102 23.6723 50.0759 23.9513L27.1227 38.6445C26.5614 38.9995 26.0801 39.4683 25.7096 40.0209C25.3391 40.5736 25.0875 41.1978 24.9711 41.8538C24.8524 42.5235 24.8679 43.2104 25.0166 43.874C25.1654 44.5377 25.4444 45.1649 25.8375 45.7189C26.4786 46.646 27.3869 47.3536 28.4403 47.7467C29.4937 48.1397 30.6416 48.1993 31.7297 47.9175C32.2302 47.7857 32.7069 47.5755 33.1422 47.2946L41.8965 41.6847C43.3343 40.7608 44.9066 40.0677 46.5569 39.6304C50.1683 38.6872 53.9809 38.88 57.4798 40.1827C60.9786 41.4854 63.9953 43.8353 66.1226 46.9151C67.4304 48.7507 68.3592 50.8307 68.8542 53.0326C69.3493 55.2344 69.4006 57.5135 69.0051 59.7356C68.6152 61.9134 67.7778 63.9857 66.5462 65.8202C65.3147 67.6547 63.716 69.2113 61.8522 70.3905L38.9031 85.0837C37.4656 86.009 35.8932 86.7034 34.2427 87.1421ZM76.7738 13.0985C67.6254 -0.0602457 49.5503 -3.95836 36.4846 4.40712L13.5314 19.1003C10.4297 21.0578 7.76956 23.6451 5.72173 26.6961C3.67391 29.7472 2.28363 33.1946 1.6401 36.8172C0.543952 42.9187 1.50636 49.2133 4.37478 54.7031C2.40628 57.6945 1.06505 61.0574 0.432902 64.5866C-0.220862 68.2811 -0.13339 72.0696 0.690184 75.7296C1.51376 79.3897 3.05684 82.8476 5.22885 85.9004C14.3814 99.0591 32.4524 102.957 45.5181 94.5959L68.4713 79.9027C71.573 77.9452 74.2331 75.358 76.281 72.3069C78.3288 69.2559 79.7191 65.8084 80.3626 62.1859C81.4568 56.0847 80.496 49.7912 77.632 44.2999C79.5976 41.3079 80.936 37.9451 81.5657 34.4164C82.2206 30.7216 82.1341 26.9325 81.3112 23.2717C80.4883 19.6108 78.9457 16.1521 76.7738 13.0985Z" fill="white" fill-opacity="0.5"/>
</svg>
