<svg width="103" height="62" viewBox="0 0 103 62" fill="none" xmlns="http://www.w3.org/2000/svg">
<path d="M51.5 0C37.7495 0 29.2005 6.87167 25.75 20.6667C30.9 13.795 36.9255 11.2117 43.775 12.9167C47.689 13.8983 50.5215 16.74 53.6115 19.8917C58.6585 25.0583 64.375 31 77.25 31C91.0005 31 99.5495 24.1283 103 10.3333C97.85 17.205 91.8245 19.7883 84.975 18.0833C81.061 17.1017 78.28 14.26 75.1385 11.1083C70.0915 5.94166 64.375 0 51.5 0ZM25.75 31C11.9995 31 3.4505 37.8717 0 51.6667C5.15 44.795 11.1755 42.2117 18.025 43.9167C21.939 44.8983 24.72 47.74 27.8615 50.8917C32.9085 56.0583 38.625 62 51.5 62C65.2505 62 73.7995 55.1283 77.25 41.3333C72.1 48.205 66.0745 50.7883 59.225 49.0833C55.311 48.1017 52.53 45.26 49.3885 42.1083C44.3415 36.9417 38.625 31 25.75 31Z" fill="white" fill-opacity="0.5"/>
</svg>
