<svg width="100" height="99" viewBox="0 0 100 99" fill="none" xmlns="http://www.w3.org/2000/svg">
<path d="M-5.93262 50.3279V100.328H99.9996V0.327881H-5.93262V50.3279ZM79.4318 46.3279C81.969 46.8837 84.275 48.1364 86.0589 49.9279C87.0409 50.8931 87.8946 51.9677 88.6013 53.1279C88.6013 53.2559 84.025 56.1759 81.2369 57.8079C81.1352 57.8719 80.7284 57.4559 80.2792 56.8239C79.7703 55.9948 79.0471 55.301 78.1772 54.8072C77.3073 54.3133 76.319 54.0356 75.3047 53.9999C72.0928 53.7919 70.025 55.3839 70.042 57.9999C70.0162 58.6511 70.1741 59.2971 70.4996 59.8719C71.203 61.2559 72.5165 62.0799 76.6352 63.7599C84.2199 66.8399 87.4657 68.8719 89.4826 71.7599C91.7369 74.9599 92.2369 80.1279 90.7114 83.9519C89.0165 88.1119 84.864 90.9359 78.9911 91.8719C76.3088 92.1621 73.5986 92.1352 70.9233 91.7919C66.8404 91.1666 63.074 89.3315 60.1691 86.5519C59.1945 85.5359 57.2962 82.8879 57.4148 82.6959C57.7236 82.4783 58.0494 82.283 58.3894 82.1119L62.2877 79.9999L65.3301 78.3359L65.9657 79.2239C67.0387 80.6721 68.4037 81.9063 69.9826 82.8559C73.3725 84.5359 77.9996 84.3039 80.2877 82.3599C81.056 81.6475 81.5352 80.7034 81.6421 79.6918C81.7489 78.6803 81.4766 77.6654 80.8725 76.8239C80.025 75.7119 78.3301 74.7759 73.5928 72.8239C68.1267 70.5999 65.7708 69.2239 63.6182 67.0319C62.2749 65.5851 61.2828 63.8786 60.7114 62.0319C60.2856 59.9218 60.2227 57.7608 60.525 55.6319C61.6521 50.6479 65.6098 47.1679 71.3894 46.1359C74.0661 45.8237 76.7773 45.8938 79.4318 46.3439V46.3279ZM54.5674 50.5199V54.6159H40.8131V91.5999H31.0589V54.6079H17.2708V50.6079C17.2335 49.2309 17.2731 47.853 17.3894 46.4799C17.4403 46.4159 25.864 46.3839 36.0335 46.3999H54.5165L54.5674 50.5199Z" fill="white" fill-opacity="0.5"/>
</svg>
